<svg width="24" height="24" viewBox="0 0 24 24" fill="none" xmlns="http://www.w3.org/2000/svg">
<path d="M8.67041 14.33C8.67041 15.62 9.66041 16.66 10.8904 16.66H13.4004C14.4704 16.66 15.3404 15.75 15.3404 14.63C15.3404 13.41 14.8104 12.98 14.0204 12.7L9.99041 11.3C9.20041 11.02 8.67041 10.59 8.67041 9.37003C8.67041 8.25003 9.54041 7.34003 10.6104 7.34003H13.1204C14.3504 7.34003 15.3404 8.38003 15.3404 9.67003" stroke="#292D32" stroke-width="1.5" stroke-linecap="round" stroke-linejoin="round"/>
<path d="M12.0005 6V18" stroke="#292D32" stroke-width="1.5" stroke-linecap="round" stroke-linejoin="round"/>
<path d="M4.00049 6C2.75049 7.67 2.00049 9.75 2.00049 12C2.00049 17.52 6.48049 22 12.0005 22C17.5205 22 22.0005 17.52 22.0005 12C22.0005 6.48 17.5205 2 12.0005 2C10.5705 2 9.20049 2.3 7.97049 2.85" stroke="#292D32" stroke-width="1.5" stroke-linecap="round" stroke-linejoin="round"/>
</svg>
