<svg width="24" height="24" viewBox="0 0 24 24" fill="none" xmlns="http://www.w3.org/2000/svg">
<path d="M19.0615 18.67L16.9215 14.4L14.7815 18.67" stroke="#292D32" stroke-width="1.5" stroke-linecap="round" stroke-linejoin="round"/>
<path d="M15.1714 17.91H18.6915" stroke="#292D32" stroke-width="1.5" stroke-linecap="round" stroke-linejoin="round"/>
<path d="M19.9215 21.02C19.0815 21.63 18.0515 22 16.9315 22C14.1315 22 11.8515 19.73 11.8515 16.92C11.8515 14.12 14.1215 11.84 16.9315 11.84C19.7315 11.84 22.0115 14.11 22.0115 16.92" stroke="#292D32" stroke-width="1.5" stroke-linecap="round" stroke-linejoin="round"/>
<path d="M11.9515 8.92999C12.0015 11 11.0015 12 8.93146 11.95H5.01146C3.00146 12 2.00146 11 2.00146 8.92999V5.01001C2.00146 2.99001 3.00147 1.98999 5.02147 1.98999H8.94147C11.0115 1.98999 12.0115 2.99001 11.9615 5.01001" stroke="#292D32" stroke-width="1.5" stroke-linecap="round" stroke-linejoin="round"/>
<path d="M9.01147 5.84998H4.95148" stroke="#292D32" stroke-width="1.5" stroke-linecap="round" stroke-linejoin="round"/>
<path d="M6.97147 5.16998V5.84998" stroke="#292D32" stroke-width="1.5" stroke-linecap="round" stroke-linejoin="round"/>
<path d="M7.99147 5.84003C7.99147 7.59003 6.62147 9.01001 4.94147 9.01001" stroke="#292D32" stroke-width="1.5" stroke-linecap="round" stroke-linejoin="round"/>
<path d="M9.01146 9.01001C8.28146 9.01001 7.62147 8.62 7.16147 8" stroke="#292D32" stroke-width="1.5" stroke-linecap="round" stroke-linejoin="round"/>
<path d="M2.00146 15C2.00146 18.87 5.13146 22 9.00146 22L7.95146 20.25" stroke="#292D32" stroke-width="1.5" stroke-linecap="round" stroke-linejoin="round"/>
<path d="M22.0015 9C22.0015 5.13 18.8715 2 15.0015 2L16.0515 3.75" stroke="#292D32" stroke-width="1.5" stroke-linecap="round" stroke-linejoin="round"/>
</svg>
